<svg xmlns="http://www.w3.org/2000/svg" viewBox="0 0 512 512">
  <defs>
    <linearGradient id="g" x1="0%" y1="0%" x2="100%" y2="100%">
      <stop offset="0%" stop-color="#c084fc"/>
      <stop offset="100%" stop-color="#6d28d9"/>
    </linearGradient>
  </defs>
  <rect width="512" height="512" rx="96" fill="#07040f"/>
  <svg x="56" y="56" width="400" height="400" viewBox="-5 -10 79.803192 79.551048">
    <path fill="url(#g)" d="m 74.276433,11.874459 c 0.39844,-2.1288996 0.62109,-4.3593996 0.48828,-6.6991996 -0.14062,-2.3203 -0.62891,-4.78910002 -1.8203,-7.1406 -1.2109,-2.3203 -3.1289,-4.4414 -5.4492,-5.7188 -2.3008,-1.3203 -4.7891,-1.9297 -7.1094,-2.0898 -4.6914,-0.3281304 -8.9219,0.69141 -12.859,2.0312 -3.9297,1.3789 -7.6016,3.1914 -11.078,5.25 -0.41016,0.23828 -0.80859,0.5 -1.2188,0.75 -2.1406,-1.3203 -4.3398,-2.5586 -6.6289,-3.6602 -3.6992,-1.7695 -7.6211,-3.25 -11.879,-4.0703 -2.1289,-0.39844 -4.3594,-0.6210904 -6.6992,-0.48828 -2.3203,0.14062 -4.7891,0.62891 -7.1406,1.8281 -2.32030002,1.2109 -4.4414,3.1289 -5.7188,5.4492 -1.3203,2.30079998 -1.9297,4.7891 -2.1016,7.1094 -0.32812,4.6914 0.69141,8.9218996 2.0312,12.8589996 1.3789,3.9297 3.19139998,7.6016 5.2383,11.078 0.33984,0.57031 0.69141,1.1289 1.0391,1.6914 -0.39062,0.64063 -0.78906,1.2812 -1.1602,1.9297 -2.10160002,3.6602 -3.9414,7.5195 -5.2617,11.68 -1.2812,4.1484 -2.1914,8.6484 -1.3984,13.578 0.42188,2.4297 1.4219,5.0117 3.1797,7.1211 0.87108998,1.0586 1.92969998,1.9492 3.0586,2.7109 1.1484,0.69922 2.3594,1.3008 3.6016,1.6484 2.4688,0.78906 4.9102,0.91016 7.2305,0.78906 2.3203,-0.12891 4.5312,-0.55078 6.6602,-1.1211 4.25,-1.1484 8.1797,-2.8789 11.898,-4.8984 1.2305,-0.67187 2.4297,-1.3789 3.6211,-2.1094 0.67188,0.41016 1.3281,0.82031 2.0117,1.2109 3.6602,2.1016 7.5195,3.9414 11.68,5.2617 4.1484,1.2812 8.6484,2.1914 13.578,1.3984 2.4297,-0.42188 5.0117,-1.4219 7.1211,-3.1797 1.0586,-0.87109 1.9492,-1.9297 2.7109,-3.0586 0.69922,-1.1484 1.3008,-2.3711 1.6484,-3.6016 0.78906,-2.4688 0.89844,-4.9219 0.78906,-7.2305 -0.12891,-2.3203 -0.55078,-4.5312 -1.1211,-6.6602 -1.1484,-4.25 -2.8789,-8.1797 -4.8984,-11.898 -0.57812,-1.0703 -1.1914,-2.1211 -1.8203,-3.1602 1.3398,-2.1602 2.5898,-4.3789 3.7109,-6.6992 1.7695,-3.6992 3.25,-7.6211 4.0586,-11.879 z m -70.75,5.1797 c -1.2891,-3.4883 -2.1992,-7.1483996 -2.1602,-10.6089996 0.01953,-3.4688 1.1992,-6.55080002 3.6406,-8.0508 2.3906,-1.5781 5.8906,-1.75 9.3203,-1.1016 3.4609,0.62891 6.9102,1.98829998 10.199,3.66019998 1.2617,0.64062002 2.4883,1.35160002 3.6992,2.07810002 -3.7617,2.8398 -7.2891,5.9414 -10.621,9.2382996 -3.8203,3.8203 -7.3906,7.9102 -10.578,12.309 -1.3516,-2.4414 -2.5508,-4.9492 -3.5117,-7.5312 z m 15.301,45.469 c -3.5391,1.0391 -7.2695,1.6211 -10.57,0.96875 -3.3008,-0.62891 -5.7891,-2.7383 -6.6914,-5.8984 -0.94922002,-3.1484 -0.55078,-6.8984 0.37109,-10.449 0.92969,-3.5781 2.4414,-7.0781 4.2188,-10.441 0.25,-0.46875 0.51953,-0.92188 0.78125,-1.3789 3.0898,4.2305 6.5117,8.1797 10.172,11.871 3.8516,3.8594 7.9883,7.4609 12.441,10.672 -3.4492,1.9297 -7.0312,3.5391 -10.73,4.6602 z m 48.68,-53.0389996 c -0.62891,3.4608996 -1.9883,6.9101996 -3.6602,10.1989996 -0.64844,1.2695 -1.3594,2.5195 -2.1094,3.7383 -0.08984,-0.12109 -0.17969,-0.25 -0.26953,-0.37891 -1.6484,-2.1992 -3.6484,-4.9805 -5.6797,-6.8789 -2.0195,-1.8984 -7.013503,-8.2647666 -6.882237,-5.381341 -4.946551,2.100398 0.811897,6.799241 2.382207,8.850041 1.5781,2.0508 3.8711,4.3516 5.3398,6.3281 0.60156,0.80078 1.1914,1.6211 1.7695,2.4414 -0.17188,0.23828 -0.33984,0.48047 -0.51953,0.71875 -2.1016,2.8086 -4.8789,6.0508 -6.7891,8.9102 -1.8906,2.8711 -8.971549,10.038595 -4.136942,8.812056 2.876819,2.124677 7.129042,-1.483966 9.769742,-3.855056 2.2109,-1.9609 4.4219,-4.7305 6.2617,-7.2891 1.8086,3.3008 3.3203,6.7188 4.3906,10.25 1.0391,3.5391 1.6211,7.2695 0.96875,10.57 -0.62891,3.2891 -2.7383,5.7891 -5.8984,6.6914 -3.1484,0.94922 -6.8984,0.55078 -10.449,-0.37109 -3.5781,-0.92969 -7.0781,-2.4414 -10.441,-4.2188 -0.48828,-0.26172 -0.96094,-0.53906 -1.4414,-0.80859 0.55078,-0.39844 1.1094,-0.78906 1.6484,-1.1992 2.1914,-1.6484 4.9805,-3.6484 6.8789,-5.6797 1.8984,-2.0195 3.770712,-3.208556 5.000444,-5.19243 3.415029,-2.915918 -10.204595,-0.418971 -8.813349,1.151349 -2.222902,1.80757 -4.007395,3.412161 -5.983895,4.880861 -1.2891,0.96094 -2.6094,1.8906 -3.9492,2.7891 -4.1797,-2.8398 -8.1094,-6.0781 -11.789,-9.5703 -4.7695,-4.5898 -9.1211,-9.6406 -12.789,-15.102 2.8203,-4.1289 6.0312,-8.0312 9.4883,-11.66 4.1719,-4.3281 8.7109,-8.3085996 13.602,-11.7499996 0.19141,0.14062 0.39062,0.28125 0.58984,0.42188 2.8008,2.1016 6.0508,4.8788996 8.9102,6.7890996 2.8711,1.8906 5.4492,2.8906 7.1484,1.0391 1.3789,-1.5 0.17969,-4.0391 -2.1797,-6.6718996 -1.9219,-2.1719 -4.6289,-4.3281 -7.1484,-6.1484 2.2891,-1.23830002 4.6406,-2.35160002 7.0391,-3.25 3.4883,-1.2891 7.1484,-2.1992 10.609,-2.1602 3.4609,0.01953 6.5508,1.1992 8.0508,3.64059998 1.5781,2.39060002 1.75,5.89060002 1.1016,9.32030002 z"/>
    <path fill="url(#g)" stroke="url(#g)" stroke-width="1.21263" d="m 29.164252,14.550477 c 4.854208,0 8.350105,3.116451 8.350105,8.086403 0,4.96382 -3.954836,9.006734 -8.809044,9.006734 -4.860203,0 -8.807845,-4.042914 -8.807845,-9.006734 0,-4.969952 4.406581,-8.086403 9.266784,-8.086403 z M 28.84767,8.8470914 C 25.987668,12.826241 8.212383,24.601805 8.212383,29.907746 c 0,13.240941 20.8771,26.078277 26.930032,25.623428 6.514142,-0.489506 25.094273,-11.235138 25.094273,-24.476079 0,-5.410172 -21.055015,-22.7825246 -24.019343,-26.8021406"/>
  </svg>
</svg>
